<svg width="136" height="69" xmlns="http://www.w3.org/2000/svg" xmlns:xlink="http://www.w3.org/1999/xlink" xml:space="preserve" overflow="hidden"><g transform="translate(-775 -567)"><path d="M100.659 0C119.713-6.05277e-15 135.159 15.4462 135.159 34.5L135.159 34.5C135.159 53.5538 119.713 69 100.659 69L34.5002 69C15.4464 69 0.000214471 53.5538 0.000214471 34.5L0.000214471 34.5C0.000214471 15.4462 15.4464 0 34.5002 0Z" fill="#4589FF" transform="matrix(1.0041 0 0 1 775 567)"/><path d="M46.6476 43.5321 46.6476 45.134 32.6618 45.134 32.6618 43.2548 40.2708 36.0463C42.3656 34.0748 43.7519 32.0724 43.7519 29.8236L43.7519 29.2383C43.7519 26.5889 42.2116 24.8639 39.285 24.8639 36.4201 24.8639 34.9414 26.4041 34.2021 28.7762L32.5694 28.1908C33.3704 25.5723 35.3419 23.2619 39.3159 23.2619 43.413 23.2619 45.6927 25.7264 45.6927 29.3923 45.6927 32.442 44.0291 34.7832 41.3798 37.2169L34.6026 43.5321 46.6476 43.5321ZM58.0028 45.5037C53.0431 45.5037 50.6711 41.7453 50.6711 34.3828 50.6711 27.0202 53.0431 23.2619 58.0028 23.2619 62.9626 23.2619 65.3346 27.0202 65.3346 34.3828 65.3346 41.7453 62.9626 45.5037 58.0028 45.5037ZM58.0028 43.9018C61.6995 43.9018 63.363 40.9444 63.363 35.8307L63.363 32.9349C63.363 27.8211 61.6995 24.8639 58.0028 24.8639 54.3062 24.8639 52.6427 27.8211 52.6427 32.9349L52.6427 35.8307C52.6427 40.9444 54.3062 43.9018 58.0028 43.9018ZM58.0028 35.7998C56.9247 35.7998 56.5242 35.2762 56.5242 34.6292L56.5242 34.1363C56.5242 33.4895 56.9247 32.9657 58.0028 32.9657 59.081 32.9657 59.4816 33.4895 59.4816 34.1363L59.4816 34.6292C59.4816 35.2762 59.081 35.7998 58.0028 35.7998ZM83.5904 43.5321 83.5904 45.134 69.6046 45.134 69.6046 43.2548 77.2136 36.0463C79.3084 34.0748 80.6946 32.0724 80.6946 29.8236L80.6946 29.2383C80.6946 26.5889 79.1544 24.8639 76.2279 24.8639 73.3629 24.8639 71.8842 26.4041 71.1449 28.7762L69.5122 28.1908C70.3131 25.5723 72.2847 23.2619 76.2586 23.2619 80.3558 23.2619 82.6354 25.7264 82.6354 29.3923 82.6354 32.442 80.9719 34.7832 78.3227 37.2169L71.5453 43.5321 83.5904 43.5321ZM100.892 23.6316 100.892 25.2335 91.1567 25.2335 90.4786 34.2596 90.6634 34.2904C91.7726 32.7809 93.1279 32.0107 95.4074 32.0107 99.228 32.0107 101.784 34.4752 101.784 38.5724 101.784 42.7312 99.1351 45.5037 94.8222 45.5037 91.4335 45.5037 89.4317 43.9942 88.0764 41.9918L89.493 40.9444C90.6941 42.7928 92.1423 43.9018 94.8537 43.9018 98.0567 43.9018 99.8745 41.9302 99.8745 38.9728L99.8745 38.4799C99.8745 35.4918 98.1189 33.5819 94.915 33.5819 92.6355 33.5819 91.557 34.352 90.4786 35.5534L88.8771 35.307 89.6472 23.6316 100.892 23.6316Z" transform="matrix(1.0041 0 0 1 775 567)"/></g></svg>