<svg width="288" height="142" xmlns="http://www.w3.org/2000/svg" xmlns:xlink="http://www.w3.org/1999/xlink" xml:space="preserve" overflow="hidden"><defs><clipPath id="clip0"><rect x="1920" y="1009" width="288" height="142"/></clipPath></defs><g clip-path="url(#clip0)" transform="translate(-1920 -1009)"><path d="M273.959 0C280.297-1.92552e-15 285.434 5.13744 285.434 11.4748L285.434 130.525C285.434 136.863 280.297 142 273.959 142L11.4748 142C5.13743 142-1.00051e-05 136.863-1.00051e-05 130.525L-1.00051e-05 11.4748C-1.00051e-05 5.13744 5.13743 3.32455e-07 11.4748 3.32455e-07Z" fill="#A56EFF" transform="matrix(1.0064 0 0 1 1920 1009)"/><path d="M268.222 25.8184 18.6464 25.8184" stroke="#8A3FFC" stroke-width="5.73737" stroke-linecap="round" stroke-miterlimit="10" fill="none" transform="matrix(1.0064 0 0 1 1920 1009)"/><path d="M268.222 70.2834 18.6464 70.2834" stroke="#8A3FFC" stroke-width="5.73737" stroke-linecap="round" stroke-miterlimit="10" fill="none" transform="matrix(1.0064 0 0 1 1920 1009)"/><path d="M268.222 94.6663 18.6464 94.6663" stroke="#8A3FFC" stroke-width="5.73737" stroke-linecap="round" stroke-miterlimit="10" fill="none" transform="matrix(1.0064 0 0 1 1920 1009)"/><path d="M268.222 119.05 18.6464 119.05" stroke="#8A3FFC" stroke-width="5.73737" stroke-linecap="round" stroke-miterlimit="10" fill="none" transform="matrix(1.0064 0 0 1 1920 1009)"/><path d="M48.5668 17.2122 40.3625 17.2122C37.875 17.2122 35.8586 19.2286 35.8586 21.7161L35.8586 29.9205C35.8586 32.408 37.875 34.4244 40.3625 34.4244L48.5668 34.4244C51.0543 34.4244 53.0707 32.408 53.0707 29.9205L53.0707 21.7161C53.0707 19.2286 51.0543 17.2122 48.5668 17.2122Z" fill="#FFFFFF" transform="matrix(1.0064 0 0 1 1920 1009)"/><path d="M48.5668 61.6772 40.3625 61.6772C37.875 61.6772 35.8586 63.6936 35.8586 66.1811L35.8586 74.3856C35.8586 76.8729 37.875 78.8893 40.3625 78.8893L48.5668 78.8893C51.0543 78.8893 53.0707 76.8729 53.0707 74.3856L53.0707 66.1811C53.0707 63.6936 51.0543 61.6772 48.5668 61.6772Z" transform="matrix(1.0064 0 0 1 1920 1009)"/><path d="M48.5668 87.4945 40.3625 87.4945C37.875 87.4945 35.8586 89.5109 35.8586 91.9983L35.8586 100.203C35.8586 102.69 37.875 104.707 40.3625 104.707L48.5668 104.707C51.0543 104.707 53.0707 102.69 53.0707 100.203L53.0707 91.9983C53.0707 89.5109 51.0543 87.4945 48.5668 87.4945Z" fill="#FF7EB6" transform="matrix(1.0064 0 0 1 1920 1009)"/><path d="M75.8194 110.445 61.8776 110.445C59.3903 110.445 57.3737 112.461 57.3737 114.948L57.3737 123.153C57.3737 125.64 59.3903 127.656 61.8776 127.656L75.8194 127.656C78.3068 127.656 80.3232 125.64 80.3232 123.153L80.3232 114.948C80.3232 112.461 78.3068 110.445 75.8194 110.445Z" transform="matrix(1.0064 0 0 1 1920 1009)"/><path d="M108.809 110.445 94.8675 110.445C92.3801 110.445 90.3636 112.461 90.3636 114.948L90.3636 123.153C90.3636 125.64 92.3801 127.656 94.8675 127.656L108.809 127.656C111.297 127.656 113.313 125.64 113.313 123.153L113.313 114.948C113.313 112.461 111.297 110.445 108.809 110.445Z" transform="matrix(1.0064 0 0 1 1920 1009)"/><path d="M252.244 17.2122 238.302 17.2122C235.814 17.2122 233.798 19.2286 233.798 21.7161L233.798 29.9205C233.798 32.408 235.814 34.4244 238.302 34.4244L252.244 34.4244C254.731 34.4244 256.748 32.408 256.748 29.9205L256.748 21.7161C256.748 19.2286 254.731 17.2122 252.244 17.2122Z" transform="matrix(1.0064 0 0 1 1920 1009)"/><path d="M252.244 61.6772 238.302 61.6772C235.814 61.6772 233.798 63.6936 233.798 66.1811L233.798 74.3856C233.798 76.8729 235.814 78.8893 238.302 78.8893L252.244 78.8893C254.731 78.8893 256.748 76.8729 256.748 74.3856L256.748 66.1811C256.748 63.6936 254.731 61.6772 252.244 61.6772Z" fill="#FFFFFF" transform="matrix(1.0064 0 0 1 1920 1009)"/><path d="M252.244 86.0602 238.302 86.0602C235.814 86.0602 233.798 88.0766 233.798 90.564L233.798 98.7685C233.798 101.256 235.814 103.272 238.302 103.272L252.244 103.272C254.731 103.272 256.748 101.256 256.748 98.7685L256.748 90.564C256.748 88.0766 254.731 86.0602 252.244 86.0602Z" transform="matrix(1.0064 0 0 1 1920 1009)"/><path d="M252.244 110.445 238.302 110.445C235.814 110.445 233.798 112.461 233.798 114.948L233.798 123.153C233.798 125.64 235.814 127.656 238.302 127.656L252.244 127.656C254.731 127.656 256.748 125.64 256.748 123.153L256.748 114.948C256.748 112.461 254.731 110.445 252.244 110.445Z" transform="matrix(1.0064 0 0 1 1920 1009)"/><path d="M156.143 110.445 129.292 110.445C126.804 110.445 124.788 112.461 124.788 114.948L124.788 123.153C124.788 125.64 126.804 127.656 129.292 127.656L156.143 127.656C158.63 127.656 160.646 125.64 160.646 123.153L160.646 114.948C160.646 112.461 158.63 110.445 156.143 110.445Z" fill="#FFFFFF" transform="matrix(1.0064 0 0 1 1920 1009)"/><path d="M213.516 11.4748 175.191 11.4748C172.703 11.4748 170.687 13.4913 170.687 15.9787L170.687 103.072C170.687 105.559 172.703 107.576 175.191 107.576L213.516 107.576C216.004 107.576 218.02 105.559 218.02 103.072L218.02 15.9787C218.02 13.4913 216.004 11.4748 213.516 11.4748Z" transform="matrix(1.0064 0 0 1 1920 1009)"/></g></svg>