<svg width="249" height="77" xmlns="http://www.w3.org/2000/svg" xmlns:xlink="http://www.w3.org/1999/xlink" xml:space="preserve" overflow="hidden"><defs><clipPath id="clip0"><rect x="844" y="779" width="249" height="77"/></clipPath></defs><g clip-path="url(#clip0)" transform="translate(-844 -779)"><path d="M210.012 0C231.083-6.07909e-15 248.165 17.0818 248.165 38.1534L248.165 38.1534C248.165 59.2249 231.083 76.3067 210.012 76.3067L38.1536 76.3067C17.0821 76.3067 0.000204093 59.2249 0.000204093 38.1534L0.000204093 38.1534C0.000204093 17.0818 17.0821-1.1697e-06 38.1536-1.1697e-06Z" fill="#FFFFFF" transform="matrix(1.00013 0 0 1 844 779)"/><path d="M47.1009 50.0516C41.6814 50.0516 38.9389 46.1339 38.9389 38.2657 38.9389 30.3975 41.6814 26.4797 47.1009 26.4797 50.8554 26.4797 52.7817 28.6998 53.8264 31.3116L52.1613 32.0625C51.3125 29.8425 49.876 28.1775 47.1009 28.1775 43.0526 28.1775 41.0284 31.3116 41.0284 36.7312L41.0284 39.8001C41.0284 45.2197 43.0526 48.3539 47.1009 48.3539 49.876 48.3539 51.3125 46.6889 52.1613 44.4688L53.8264 45.2197C52.7817 47.8315 50.8554 50.0516 47.1009 50.0516ZM65.8934 50.0516C61.3227 50.0516 58.5476 46.7868 58.5476 41.2367 58.5476 35.6865 61.3227 32.4217 65.8934 32.4217 70.4642 32.4217 73.2392 35.6865 73.2392 41.2367 73.2392 46.7868 70.4642 50.0516 65.8934 50.0516ZM65.8934 48.4192C69.1908 48.4192 71.2477 46.2644 71.2477 42.2814L71.2477 40.1919C71.2477 36.2088 69.1908 34.0541 65.8934 34.0541 62.596 34.0541 60.5391 36.2088 60.5391 40.1919L60.5391 42.2814C60.5391 46.2644 62.596 48.4192 65.8934 48.4192ZM79.4296 49.6598 77.6992 49.6598 77.6992 32.8135 79.4296 32.8135 79.4296 34.7723 79.5276 34.7723C80.0499 33.4664 80.9967 32.4217 82.8577 32.4217 84.7512 32.4217 85.796 33.4337 86.0569 35.0661L86.1228 35.0661C86.7097 33.5644 87.7877 32.4217 89.7786 32.4217 92.3581 32.4217 93.2727 34.2173 93.2727 37.4495L93.2727 49.6598 91.5419 49.6598 91.5419 37.7433C91.5419 35.0009 90.8241 33.9887 89.1583 33.9887 87.5918 33.9887 86.3512 35.0661 86.3512 37.2209L86.3512 49.6598 84.6206 49.6598 84.6206 37.7433C84.6206 35.0009 83.9024 33.9887 82.2373 33.9887 80.6702 33.9887 79.4296 35.0661 79.4296 37.2209L79.4296 49.6598ZM98.7448 56.1895 98.7448 32.8135 100.606 32.8135 100.606 35.4906 100.703 35.4906C101.65 33.6623 103.38 32.4217 105.927 32.4217 110.106 32.4217 112.62 35.5885 112.62 41.2367 112.62 46.8847 110.106 50.0516 105.927 50.0516 103.38 50.0516 101.65 48.811 100.703 46.9827L100.606 46.9827 100.606 56.1895 98.7448 56.1895ZM105.307 48.3865C108.702 48.3865 110.628 46.0685 110.628 42.4119L110.628 40.0613C110.628 36.4047 108.702 34.0867 105.307 34.0867 102.792 34.0867 100.606 35.5233 100.606 37.9065L100.606 44.5667C100.606 46.9501 102.792 48.3865 105.307 48.3865ZM128.996 49.6598 128.996 47.0479 128.865 47.0479C128.213 48.6151 126.776 50.0516 123.936 50.0516 120.312 50.0516 118.157 47.7663 118.157 43.6853L118.157 32.8135 120.018 32.8135 120.018 43.3588C120.018 46.8194 121.586 48.3865 124.426 48.3865 126.744 48.3865 128.996 47.2112 128.996 44.6647L128.996 32.8135 130.857 32.8135 130.857 49.6598 128.996 49.6598ZM151.511 49.6598 144.263 49.6598C142.467 49.6598 141.618 48.5825 141.618 46.9501L141.618 34.4132 135.644 34.4132 135.644 32.8135 140.378 32.8135C141.325 32.8135 141.683 32.4543 141.683 31.5075L141.683 26.8715 143.479 26.8715 143.479 32.8135 151.511 32.8135 151.511 34.4132 143.479 34.4132 143.479 48.0601 151.511 48.0601 151.511 49.6598ZM164.818 28.308C163.643 28.308 163.186 27.753 163.186 27.0021L163.186 26.5777C163.186 25.8267 163.643 25.2717 164.818 25.2717 165.994 25.2717 166.451 25.8267 166.451 26.5777L166.451 27.0021C166.451 27.753 165.994 28.308 164.818 28.308ZM157.57 49.6598 157.57 48.0601 163.904 48.0601 163.904 34.4132 157.57 34.4132 157.57 32.8135 165.766 32.8135 165.766 48.0601 171.674 48.0601 171.674 49.6598 157.57 49.6598ZM178.975 49.6598 177.114 49.6598 177.114 32.8135 178.975 32.8135 178.975 35.4253 179.105 35.4253C179.758 33.8582 181.195 32.4217 184.035 32.4217 187.659 32.4217 189.814 34.7071 189.814 38.7881L189.814 49.6598 187.953 49.6598 187.953 39.1145C187.953 35.6538 186.386 34.0867 183.546 34.0867 181.227 34.0867 178.975 35.2621 178.975 37.8086L178.975 49.6598ZM211.219 51.6513C211.219 55.0141 208.346 56.5812 202.991 56.5812 197.768 56.5812 195.613 55.0141 195.613 52.3696 195.613 50.476 196.723 49.3987 198.584 48.8436L198.584 48.5825C197.506 48.158 196.984 47.4071 196.984 46.2971 196.984 44.6647 198.29 43.8158 199.922 43.3914L199.922 43.2608C197.93 42.4119 196.756 40.5837 196.756 38.1677 196.756 34.7397 199.172 32.4217 202.926 32.4217 204.265 32.4217 205.439 32.7155 206.387 33.2705L206.387 32.5849C206.387 31.5401 206.843 30.8546 207.986 30.8546L211.284 30.8546 211.284 32.487 207.431 32.487 207.431 34.0214C208.508 35.0009 209.129 36.4373 209.129 38.1677 209.129 41.5631 206.647 43.8811 202.926 43.8811 202.338 43.8811 201.816 43.8485 201.228 43.7179 199.857 44.0443 198.616 44.73 198.616 45.9053 198.616 46.8847 199.498 47.3744 201.358 47.3744L205.374 47.3744C209.455 47.3744 211.219 49.0395 211.219 51.6513ZM209.455 51.7166C209.455 50.1169 208.411 49.1048 205.374 49.1048L199.857 49.1048C198.355 49.5945 197.441 50.5087 197.441 52.0105 197.441 53.7735 198.91 55.0794 201.849 55.0794L204.035 55.0794C207.366 55.0794 209.455 53.9694 209.455 51.7166ZM202.926 42.4119C205.734 42.4119 207.17 40.8448 207.17 38.6901L207.17 37.6127C207.17 35.4253 205.734 33.8909 202.926 33.8909 200.15 33.8909 198.714 35.4253 198.714 37.6127L198.714 38.6901C198.714 40.8448 200.184 42.4119 202.926 42.4119Z" transform="matrix(1.00013 0 0 1 844 779)"/></g></svg>